<?xml version="1.0" encoding="iso-8859-1"?>
<!-- Generator: Adobe Illustrator 16.0.0, SVG Export Plug-In . SVG Version: 6.00 Build 0)  -->
<!DOCTYPE svg PUBLIC "-//W3C//DTD SVG 1.1//EN" "http://www.w3.org/Graphics/SVG/1.1/DTD/svg11.dtd">
<svg version="1.1" id="Layer_1" xmlns="http://www.w3.org/2000/svg" xmlns:xlink="http://www.w3.org/1999/xlink" x="0px" y="0px"
	 width="22.335px" height="32px" viewBox="0 0 22.335 32" style="enable-background:new 0 0 22.335 32;" xml:space="preserve">
<g>
	<rect x="8.431" y="5.405" style="fill:#231F20;" width="0.896" height="0.84"/>
	<path style="fill:#231F20;" d="M20.628,19.341c0.023-1.148-0.064-4.707-1.877-6.73c-0.789-0.879-1.788-1.367-2.973-1.454
		c-0.046-0.006-0.092-0.01-0.14-0.01h-2.654V9.802h1.235c0.619,0,1.121-0.501,1.121-1.121V8.258
		c0.782-0.154,1.375-0.858,1.375-1.705s-0.593-1.551-1.375-1.705V4.201c0-0.619-0.502-1.121-1.121-1.121h-2.773V1.574
		c0.279-0.134,0.473-0.416,0.473-0.746c0-0.457-0.37-0.828-0.827-0.828c-0.458,0-0.828,0.371-0.828,0.828
		c0,0.33,0.194,0.612,0.473,0.746V3.08H7.965c-0.619,0-1.121,0.502-1.121,1.121v0.648C6.062,5.002,5.469,5.707,5.469,6.553
		s0.593,1.551,1.375,1.705v0.424c0,0.619,0.501,1.121,1.121,1.121h1.234v1.344H6.732c-0.012,0-0.023,0.002-0.035,0.002l0-0.002
		c-1.246,0.057-2.294,0.55-3.113,1.464c-1.813,2.023-1.9,5.582-1.876,6.73C0.715,19.65,0,20.497,0,21.493
		c0,0.019,0.003,0.037,0.004,0.056h1.347c-0.002-0.019-0.005-0.037-0.005-0.056c0-0.515,0.531-0.934,1.186-0.934
		c0.653,0,1.186,0.418,1.186,0.934c0,0.019-0.004,0.037-0.005,0.056h1.346c0.001-0.019,0.003-0.037,0.003-0.056
		c0-0.907-0.593-1.689-1.446-2.055c-0.047-1.195,0.113-4.136,1.39-5.558c0.185-0.205,0.387-0.371,0.607-0.5v7.542
		c0,0.618,0.501,1.12,1.121,1.12h0.352v1.177h2.415v-1.177h3.397v1.177h2.415v-1.177h0.328c0.619,0,1.12-0.501,1.12-1.12v-7.58
		c0.191,0.128,0.363,0.305,0.572,0.538c1.277,1.422,1.438,4.363,1.39,5.558c-0.854,0.366-1.446,1.148-1.446,2.055
		c0,0.019,0.003,0.037,0.004,0.056h1.346c-0.002-0.019-0.005-0.037-0.005-0.056c0-0.515,0.532-0.934,1.185-0.934
		c0.654,0,1.187,0.418,1.187,0.934c0,0.019-0.004,0.037-0.005,0.056h1.346c0.001-0.019,0.004-0.037,0.004-0.056
		C22.335,20.496,21.62,19.65,20.628,19.341z M12.4,7.926v0.7h-1.308H9.784v-0.7h1.308H12.4z M12.277,4.845h2.091v1.941h-2.091V4.845
		z M7.815,6.787V4.845h2.091v1.941H7.815z M14.229,12.713l1.082,1.081c-0.122,0.078-0.266,0.125-0.422,0.125
		c-0.433,0-0.784-0.351-0.784-0.784C14.104,12.979,14.151,12.836,14.229,12.713z M14.229,14.983l1.082,1.081
		c-0.122,0.078-0.266,0.125-0.422,0.125c-0.433,0-0.784-0.351-0.784-0.785C14.104,15.25,14.151,15.105,14.229,14.983z
		 M14.229,17.361l1.082,1.082c-0.122,0.079-0.266,0.125-0.422,0.125c-0.433,0-0.784-0.351-0.784-0.785
		C14.104,17.628,14.151,17.484,14.229,17.361z M9.092,17.011l-0.008,0.234c-0.001,0.047-0.041,0.083-0.088,0.082l-0.402-0.014
		c-0.047-0.001-0.083-0.041-0.082-0.087l0.008-0.228c-0.168-0.034-0.329-0.095-0.479-0.18c-0.058-0.033-0.115-0.068-0.169-0.109
		l-0.158,0.147c-0.034,0.032-0.088,0.031-0.12-0.004l-0.275-0.294c-0.03-0.032-0.028-0.088,0.004-0.119l0.155-0.145
		c-0.134-0.202-0.22-0.431-0.254-0.669l-0.203-0.007c-0.047-0.001-0.083-0.041-0.082-0.087l0.013-0.402
		c0.001-0.046,0.042-0.083,0.088-0.082l0.204,0.007c0.05-0.238,0.154-0.462,0.302-0.656l-0.14-0.15
		c-0.015-0.017-0.023-0.038-0.022-0.061c0-0.022,0.01-0.043,0.027-0.059l0.294-0.275c0.034-0.032,0.087-0.03,0.12,0.004l0.145,0.156
		c0.024-0.015,0.048-0.028,0.073-0.041c0.183-0.104,0.382-0.173,0.589-0.201l0.007-0.206c0.001-0.047,0.04-0.083,0.087-0.082
		l0.402,0.014c0.047,0.001,0.084,0.041,0.082,0.087l-0.007,0.213c0.23,0.051,0.446,0.153,0.634,0.296L10,13.939
		c0.016-0.015,0.038-0.023,0.06-0.022c0.023,0.001,0.044,0.01,0.06,0.027l0.274,0.294c0.032,0.034,0.03,0.088-0.004,0.12
		l-0.168,0.158c0.126,0.196,0.208,0.418,0.241,0.648l0.238,0.008c0.047,0.001,0.084,0.041,0.082,0.087l-0.013,0.402
		c-0.002,0.047-0.041,0.083-0.088,0.082l-0.238-0.007c-0.048,0.226-0.144,0.439-0.281,0.625l0.162,0.173
		c0.032,0.034,0.031,0.088-0.004,0.119l-0.294,0.275c-0.016,0.015-0.038,0.023-0.06,0.022c-0.023-0.001-0.044-0.011-0.06-0.027
		l-0.157-0.168C9.551,16.887,9.326,16.975,9.092,17.011z M13.698,18.835c-0.002,0.047-0.042,0.083-0.088,0.082l-0.238-0.008
		c-0.048,0.226-0.144,0.439-0.282,0.626l0.162,0.173c0.032,0.034,0.03,0.088-0.004,0.12l-0.294,0.275
		c-0.016,0.015-0.039,0.023-0.061,0.023c-0.022-0.002-0.044-0.011-0.059-0.027l-0.158-0.168c-0.198,0.131-0.422,0.218-0.657,0.255
		l-0.008,0.234c-0.002,0.047-0.041,0.084-0.088,0.082l-0.401-0.013c-0.047-0.002-0.084-0.042-0.083-0.088l0.008-0.228
		c-0.168-0.034-0.33-0.096-0.479-0.181c-0.058-0.032-0.116-0.068-0.17-0.109l-0.158,0.149c-0.034,0.032-0.087,0.03-0.119-0.005
		l-0.275-0.294c-0.03-0.032-0.029-0.089,0.004-0.119l0.155-0.145c-0.134-0.202-0.221-0.431-0.255-0.67L9.95,18.792
		c-0.047-0.002-0.083-0.041-0.082-0.088l0.014-0.402c0.001-0.047,0.041-0.083,0.088-0.082l0.203,0.007
		c0.05-0.238,0.154-0.462,0.303-0.656l-0.14-0.149c-0.015-0.017-0.024-0.039-0.022-0.061c0-0.022,0.01-0.044,0.026-0.059
		l0.294-0.275c0.034-0.031,0.088-0.03,0.12,0.004l0.146,0.155c0.023-0.015,0.048-0.027,0.072-0.041
		c0.182-0.103,0.382-0.173,0.589-0.201l0.007-0.206c0.002-0.047,0.041-0.083,0.088-0.082l0.402,0.014
		c0.046,0.001,0.083,0.041,0.081,0.087l-0.007,0.213c0.23,0.051,0.446,0.153,0.634,0.295l0.166-0.155
		c0.017-0.015,0.038-0.023,0.061-0.022s0.044,0.011,0.059,0.027l0.274,0.294c0.032,0.034,0.03,0.087-0.004,0.12l-0.168,0.158
		c0.126,0.197,0.208,0.418,0.241,0.648l0.238,0.008c0.047,0.001,0.083,0.041,0.082,0.088L13.698,18.835z M14.888,20.837
		c-0.433,0-0.784-0.351-0.784-0.784c0-0.155,0.047-0.3,0.125-0.421l1.082,1.081C15.188,20.791,15.044,20.837,14.888,20.837z
		 M15.547,20.476l-1.081-1.082c0.122-0.078,0.266-0.125,0.422-0.125c0.433,0,0.784,0.351,0.784,0.784
		C15.672,20.209,15.625,20.353,15.547,20.476z M15.547,18.205l-1.081-1.081c0.122-0.078,0.266-0.125,0.422-0.125
		c0.433,0,0.784,0.352,0.784,0.784C15.672,17.939,15.625,18.083,15.547,18.205z M15.547,15.827l-1.081-1.082
		c0.122-0.078,0.266-0.125,0.422-0.125c0.433,0,0.784,0.351,0.784,0.784C15.672,15.561,15.625,15.705,15.547,15.827z M15.547,13.557
		l-1.081-1.081c0.122-0.078,0.266-0.125,0.422-0.125c0.433,0,0.784,0.351,0.784,0.784C15.672,13.291,15.625,13.435,15.547,13.557z"
		/>
	<path style="fill:#231F20;" d="M8.891,14.513c-0.377-0.013-0.708,0.211-0.85,0.538c-0.042,0.1-0.069,0.209-0.074,0.324
		c-0.004,0.137,0.023,0.267,0.074,0.384c0.133,0.307,0.432,0.526,0.789,0.539c0.493,0.017,0.906-0.369,0.923-0.862
		C9.77,14.943,9.383,14.53,8.891,14.513z M8.849,15.744c-0.187-0.006-0.333-0.163-0.327-0.35c0.007-0.187,0.164-0.333,0.351-0.327
		c0.187,0.006,0.333,0.164,0.327,0.35C9.193,15.604,9.036,15.75,8.849,15.744z"/>
	<path style="fill:#231F20;" d="M11.82,17.688c-0.378-0.014-0.708,0.211-0.85,0.539c-0.043,0.099-0.07,0.208-0.073,0.323
		c-0.004,0.137,0.022,0.267,0.073,0.384c0.132,0.307,0.433,0.526,0.789,0.539c0.493,0.017,0.906-0.369,0.923-0.861
		C12.698,18.117,12.313,17.704,11.82,17.688z M11.777,18.918c-0.187-0.007-0.333-0.163-0.326-0.351
		c0.005-0.187,0.163-0.333,0.35-0.326c0.187,0.005,0.333,0.163,0.327,0.349C12.122,18.778,11.964,18.924,11.777,18.918z"/>
	<path style="fill:#231F20;" d="M8.274,23.506c-0.238,0-0.458,0.071-0.643,0.19l1.648,1.648c0.119-0.186,0.19-0.406,0.19-0.644
		C9.469,24.041,8.934,23.506,8.274,23.506z"/>
	<path style="fill:#231F20;" d="M7.079,24.701c0,0.661,0.535,1.196,1.195,1.196c0.237,0,0.457-0.071,0.642-0.19l-1.647-1.647
		C7.15,24.244,7.079,24.464,7.079,24.701z"/>
	<rect x="7.084" y="26.328" style="fill:#231F20;" width="2.415" height="1.512"/>
	<path style="fill:#231F20;" d="M9.499,29.479v-1.108H7.084v1.108c-0.939,0.451-1.59,1.409-1.59,2.521c4.181,0,2.751,0,5.595,0
		C11.089,30.888,10.438,29.93,9.499,29.479z"/>
	<path style="fill:#231F20;" d="M14.086,23.506c-0.238,0-0.457,0.071-0.643,0.19l1.648,1.648c0.119-0.186,0.189-0.406,0.189-0.644
		C15.281,24.041,14.746,23.506,14.086,23.506z"/>
	<path style="fill:#231F20;" d="M12.89,24.701c0,0.661,0.535,1.196,1.196,1.196c0.237,0,0.457-0.071,0.643-0.19l-1.647-1.647
		C12.961,24.244,12.89,24.464,12.89,24.701z"/>
	<rect x="12.896" y="26.328" style="fill:#231F20;" width="2.415" height="1.512"/>
	<path style="fill:#231F20;" d="M15.311,29.479v-1.108h-2.415v1.108c-0.939,0.451-1.589,1.409-1.589,2.521c4.181,0,2.75,0,5.595,0
		C16.901,30.888,16.25,29.93,15.311,29.479z"/>
	<rect x="12.856" y="5.405" style="fill:#231F20;" width="0.896" height="0.84"/>
</g>
<g>
</g>
<g>
</g>
<g>
</g>
<g>
</g>
<g>
</g>
<g>
</g>
<g>
</g>
<g>
</g>
<g>
</g>
<g>
</g>
<g>
</g>
<g>
</g>
<g>
</g>
<g>
</g>
<g>
</g>
</svg>
